<mxfile host="app.diagrams.net" modified="2024-03-23T02:35:23.756Z" agent="Mozilla/5.0 (Windows NT 10.0; Win64; x64) AppleWebKit/537.36 (KHTML, like Gecko) Chrome/120.0.0.0 Safari/537.36" etag="JoFzTcJmM7eDXPRsR6Ms" version="24.0.8" type="github">
  <diagram name="第 1 页" id="O0puUNbeElKO0M9egB0c">
    <mxGraphModel dx="2261" dy="772" grid="1" gridSize="10" guides="1" tooltips="1" connect="1" arrows="1" fold="1" page="1" pageScale="1" pageWidth="827" pageHeight="1169" math="0" shadow="0">
      <root>
        <mxCell id="0" />
        <mxCell id="1" parent="0" />
        <mxCell id="e2L_Nnnlv2MEoUU_Fil1-1" value="&lt;font style=&quot;font-size: 14px;&quot;&gt;web前端开发课程实验系统&lt;/font&gt;" style="rounded=0;whiteSpace=wrap;html=1;" parent="1" vertex="1">
          <mxGeometry x="300" y="160" width="180" height="50" as="geometry" />
        </mxCell>
        <mxCell id="e2L_Nnnlv2MEoUU_Fil1-2" value="" style="strokeWidth=1;html=1;shape=mxgraph.flowchart.annotation_2;align=left;labelPosition=right;pointerEvents=1;rotation=90;" parent="1" vertex="1">
          <mxGeometry x="358.75" y="-121.25" width="58" height="722.5" as="geometry" />
        </mxCell>
        <mxCell id="e2L_Nnnlv2MEoUU_Fil1-6" value="" style="endArrow=classic;html=1;rounded=0;entryX=0.5;entryY=0;entryDx=0;entryDy=0;" parent="1" target="e2L_Nnnlv2MEoUU_Fil1-10" edge="1">
          <mxGeometry width="50" height="50" relative="1" as="geometry">
            <mxPoint x="27" y="240" as="sourcePoint" />
            <mxPoint x="66" y="280" as="targetPoint" />
          </mxGeometry>
        </mxCell>
        <mxCell id="e2L_Nnnlv2MEoUU_Fil1-7" value="" style="endArrow=classic;html=1;rounded=0;exitX=0.5;exitY=0;exitDx=0;exitDy=0;exitPerimeter=0;" parent="1" source="e2L_Nnnlv2MEoUU_Fil1-2" edge="1">
          <mxGeometry width="50" height="50" relative="1" as="geometry">
            <mxPoint x="410" y="420" as="sourcePoint" />
            <mxPoint x="750" y="280" as="targetPoint" />
          </mxGeometry>
        </mxCell>
        <mxCell id="e2L_Nnnlv2MEoUU_Fil1-8" value="教师" style="rounded=1;whiteSpace=wrap;html=1;" parent="1" vertex="1">
          <mxGeometry x="690" y="280" width="120" height="60" as="geometry" />
        </mxCell>
        <mxCell id="e2L_Nnnlv2MEoUU_Fil1-9" value="学生" style="rounded=1;whiteSpace=wrap;html=1;" parent="1" vertex="1">
          <mxGeometry x="328" y="290" width="120" height="60" as="geometry" />
        </mxCell>
        <mxCell id="e2L_Nnnlv2MEoUU_Fil1-10" value="管理员" style="rounded=1;whiteSpace=wrap;html=1;" parent="1" vertex="1">
          <mxGeometry x="-33" y="290" width="120" height="60" as="geometry" />
        </mxCell>
        <mxCell id="e2L_Nnnlv2MEoUU_Fil1-14" value="" style="strokeWidth=1;html=1;shape=mxgraph.flowchart.annotation_2;align=left;labelPosition=right;pointerEvents=1;direction=south;" parent="1" vertex="1">
          <mxGeometry x="-103" y="350" width="250" height="80" as="geometry" />
        </mxCell>
        <mxCell id="e2L_Nnnlv2MEoUU_Fil1-15" value="用户管理" style="rounded=1;whiteSpace=wrap;html=1;direction=south;arcSize=38;" parent="1" vertex="1">
          <mxGeometry x="-143" y="440" width="90" height="40" as="geometry" />
        </mxCell>
        <mxCell id="e2L_Nnnlv2MEoUU_Fil1-16" value="" style="endArrow=classic;html=1;rounded=0;exitX=0.5;exitY=1;exitDx=0;exitDy=0;exitPerimeter=0;" parent="1" source="e2L_Nnnlv2MEoUU_Fil1-14" edge="1">
          <mxGeometry width="50" height="50" relative="1" as="geometry">
            <mxPoint x="317" y="370" as="sourcePoint" />
            <mxPoint x="-103" y="440" as="targetPoint" />
          </mxGeometry>
        </mxCell>
        <mxCell id="e2L_Nnnlv2MEoUU_Fil1-18" value="" style="endArrow=classic;html=1;rounded=0;exitX=0.525;exitY=0.5;exitDx=0;exitDy=0;exitPerimeter=0;entryX=0;entryY=0.5;entryDx=0;entryDy=0;" parent="1" source="e2L_Nnnlv2MEoUU_Fil1-14" target="e2L_Nnnlv2MEoUU_Fil1-20" edge="1">
          <mxGeometry width="50" height="50" relative="1" as="geometry">
            <mxPoint x="317" y="370" as="sourcePoint" />
            <mxPoint x="207" y="420" as="targetPoint" />
          </mxGeometry>
        </mxCell>
        <mxCell id="e2L_Nnnlv2MEoUU_Fil1-20" value="课程管理" style="rounded=1;whiteSpace=wrap;html=1;direction=south;arcSize=38;" parent="1" vertex="1">
          <mxGeometry x="-23" y="440" width="90" height="40" as="geometry" />
        </mxCell>
        <mxCell id="e2L_Nnnlv2MEoUU_Fil1-21" value="" style="endArrow=classic;html=1;rounded=0;exitX=0.5;exitY=0;exitDx=0;exitDy=0;exitPerimeter=0;" parent="1" source="e2L_Nnnlv2MEoUU_Fil1-14" edge="1">
          <mxGeometry width="50" height="50" relative="1" as="geometry">
            <mxPoint x="317" y="370" as="sourcePoint" />
            <mxPoint x="147" y="440" as="targetPoint" />
          </mxGeometry>
        </mxCell>
        <mxCell id="e2L_Nnnlv2MEoUU_Fil1-22" value="实验管理" style="rounded=1;whiteSpace=wrap;html=1;direction=south;arcSize=38;" parent="1" vertex="1">
          <mxGeometry x="107" y="440" width="90" height="40" as="geometry" />
        </mxCell>
        <mxCell id="e2L_Nnnlv2MEoUU_Fil1-23" value="" style="strokeWidth=1;html=1;shape=mxgraph.flowchart.annotation_2;align=left;labelPosition=right;pointerEvents=1;direction=south;" parent="1" vertex="1">
          <mxGeometry x="-153" y="480" width="100" height="50" as="geometry" />
        </mxCell>
        <mxCell id="e2L_Nnnlv2MEoUU_Fil1-24" value="用户增加" style="rounded=1;whiteSpace=wrap;html=1;direction=south;" parent="1" vertex="1">
          <mxGeometry x="-163" y="540" width="20" height="80" as="geometry" />
        </mxCell>
        <mxCell id="e2L_Nnnlv2MEoUU_Fil1-26" value="" style="endArrow=classic;html=1;rounded=0;exitX=0.5;exitY=1;exitDx=0;exitDy=0;exitPerimeter=0;" parent="1" source="e2L_Nnnlv2MEoUU_Fil1-23" edge="1">
          <mxGeometry width="50" height="50" relative="1" as="geometry">
            <mxPoint x="317" y="370" as="sourcePoint" />
            <mxPoint x="-153" y="540" as="targetPoint" />
          </mxGeometry>
        </mxCell>
        <mxCell id="e2L_Nnnlv2MEoUU_Fil1-27" value="用户&lt;div&gt;删除&lt;/div&gt;" style="rounded=1;whiteSpace=wrap;html=1;direction=south;" parent="1" vertex="1">
          <mxGeometry x="-113" y="540" width="20" height="80" as="geometry" />
        </mxCell>
        <mxCell id="e2L_Nnnlv2MEoUU_Fil1-28" value="用户&lt;div&gt;修改&lt;/div&gt;" style="rounded=1;whiteSpace=wrap;html=1;direction=south;" parent="1" vertex="1">
          <mxGeometry x="-63" y="540" width="20" height="80" as="geometry" />
        </mxCell>
        <mxCell id="e2L_Nnnlv2MEoUU_Fil1-29" value="" style="endArrow=classic;html=1;rounded=0;exitX=0.5;exitY=0;exitDx=0;exitDy=0;exitPerimeter=0;" parent="1" source="e2L_Nnnlv2MEoUU_Fil1-23" edge="1">
          <mxGeometry width="50" height="50" relative="1" as="geometry">
            <mxPoint x="317" y="370" as="sourcePoint" />
            <mxPoint x="-53" y="540" as="targetPoint" />
          </mxGeometry>
        </mxCell>
        <mxCell id="e2L_Nnnlv2MEoUU_Fil1-30" value="" style="endArrow=classic;html=1;rounded=0;entryX=0;entryY=0.5;entryDx=0;entryDy=0;exitX=0.44;exitY=0.49;exitDx=0;exitDy=0;exitPerimeter=0;" parent="1" source="e2L_Nnnlv2MEoUU_Fil1-23" target="e2L_Nnnlv2MEoUU_Fil1-27" edge="1">
          <mxGeometry width="50" height="50" relative="1" as="geometry">
            <mxPoint x="-103" y="510" as="sourcePoint" />
            <mxPoint x="367" y="320" as="targetPoint" />
          </mxGeometry>
        </mxCell>
        <mxCell id="e2L_Nnnlv2MEoUU_Fil1-31" value="" style="strokeWidth=1;html=1;shape=mxgraph.flowchart.annotation_2;align=left;labelPosition=right;pointerEvents=1;direction=south;" parent="1" vertex="1">
          <mxGeometry x="-27" y="480" width="100" height="50" as="geometry" />
        </mxCell>
        <mxCell id="e2L_Nnnlv2MEoUU_Fil1-32" value="课程增加" style="rounded=1;whiteSpace=wrap;html=1;direction=south;" parent="1" vertex="1">
          <mxGeometry x="-37" y="540" width="20" height="80" as="geometry" />
        </mxCell>
        <mxCell id="e2L_Nnnlv2MEoUU_Fil1-33" value="" style="endArrow=classic;html=1;rounded=0;exitX=0.5;exitY=1;exitDx=0;exitDy=0;exitPerimeter=0;" parent="1" source="e2L_Nnnlv2MEoUU_Fil1-31" edge="1">
          <mxGeometry width="50" height="50" relative="1" as="geometry">
            <mxPoint x="443" y="370" as="sourcePoint" />
            <mxPoint x="-27" y="540" as="targetPoint" />
          </mxGeometry>
        </mxCell>
        <mxCell id="e2L_Nnnlv2MEoUU_Fil1-34" value="&lt;span style=&quot;background-color: initial;&quot;&gt;课程删除&lt;/span&gt;" style="rounded=1;whiteSpace=wrap;html=1;direction=south;" parent="1" vertex="1">
          <mxGeometry x="13" y="540" width="20" height="80" as="geometry" />
        </mxCell>
        <mxCell id="e2L_Nnnlv2MEoUU_Fil1-35" value="&lt;span style=&quot;background-color: initial;&quot;&gt;课程修改&lt;/span&gt;" style="rounded=1;whiteSpace=wrap;html=1;direction=south;" parent="1" vertex="1">
          <mxGeometry x="63" y="540" width="20" height="80" as="geometry" />
        </mxCell>
        <mxCell id="e2L_Nnnlv2MEoUU_Fil1-36" value="" style="endArrow=classic;html=1;rounded=0;exitX=0.5;exitY=0;exitDx=0;exitDy=0;exitPerimeter=0;" parent="1" source="e2L_Nnnlv2MEoUU_Fil1-31" edge="1">
          <mxGeometry width="50" height="50" relative="1" as="geometry">
            <mxPoint x="443" y="370" as="sourcePoint" />
            <mxPoint x="73" y="540" as="targetPoint" />
          </mxGeometry>
        </mxCell>
        <mxCell id="e2L_Nnnlv2MEoUU_Fil1-37" value="" style="endArrow=classic;html=1;rounded=0;entryX=0;entryY=0.5;entryDx=0;entryDy=0;exitX=0.44;exitY=0.49;exitDx=0;exitDy=0;exitPerimeter=0;" parent="1" source="e2L_Nnnlv2MEoUU_Fil1-31" target="e2L_Nnnlv2MEoUU_Fil1-34" edge="1">
          <mxGeometry width="50" height="50" relative="1" as="geometry">
            <mxPoint x="23" y="510" as="sourcePoint" />
            <mxPoint x="493" y="320" as="targetPoint" />
          </mxGeometry>
        </mxCell>
        <mxCell id="e2L_Nnnlv2MEoUU_Fil1-38" value="" style="strokeWidth=1;html=1;shape=mxgraph.flowchart.annotation_2;align=left;labelPosition=right;pointerEvents=1;direction=south;" parent="1" vertex="1">
          <mxGeometry x="101" y="481" width="100" height="50" as="geometry" />
        </mxCell>
        <mxCell id="e2L_Nnnlv2MEoUU_Fil1-39" value="实验增加" style="rounded=1;whiteSpace=wrap;html=1;direction=south;" parent="1" vertex="1">
          <mxGeometry x="91" y="541" width="20" height="80" as="geometry" />
        </mxCell>
        <mxCell id="e2L_Nnnlv2MEoUU_Fil1-40" value="" style="endArrow=classic;html=1;rounded=0;exitX=0.5;exitY=1;exitDx=0;exitDy=0;exitPerimeter=0;" parent="1" source="e2L_Nnnlv2MEoUU_Fil1-38" edge="1">
          <mxGeometry width="50" height="50" relative="1" as="geometry">
            <mxPoint x="571" y="371" as="sourcePoint" />
            <mxPoint x="101" y="541" as="targetPoint" />
          </mxGeometry>
        </mxCell>
        <mxCell id="e2L_Nnnlv2MEoUU_Fil1-41" value="&lt;span style=&quot;background-color: initial;&quot;&gt;实验删除&lt;/span&gt;" style="rounded=1;whiteSpace=wrap;html=1;direction=south;" parent="1" vertex="1">
          <mxGeometry x="141" y="541" width="20" height="80" as="geometry" />
        </mxCell>
        <mxCell id="e2L_Nnnlv2MEoUU_Fil1-42" value="&lt;span style=&quot;background-color: initial;&quot;&gt;实验修改&lt;/span&gt;" style="rounded=1;whiteSpace=wrap;html=1;direction=south;" parent="1" vertex="1">
          <mxGeometry x="193" y="541" width="20" height="80" as="geometry" />
        </mxCell>
        <mxCell id="e2L_Nnnlv2MEoUU_Fil1-43" value="" style="endArrow=classic;html=1;rounded=0;exitX=0.5;exitY=0;exitDx=0;exitDy=0;exitPerimeter=0;" parent="1" source="e2L_Nnnlv2MEoUU_Fil1-38" edge="1">
          <mxGeometry width="50" height="50" relative="1" as="geometry">
            <mxPoint x="571" y="371" as="sourcePoint" />
            <mxPoint x="201" y="541" as="targetPoint" />
          </mxGeometry>
        </mxCell>
        <mxCell id="e2L_Nnnlv2MEoUU_Fil1-44" value="" style="endArrow=classic;html=1;rounded=0;entryX=0;entryY=0.5;entryDx=0;entryDy=0;exitX=0.44;exitY=0.49;exitDx=0;exitDy=0;exitPerimeter=0;" parent="1" source="e2L_Nnnlv2MEoUU_Fil1-38" target="e2L_Nnnlv2MEoUU_Fil1-41" edge="1">
          <mxGeometry width="50" height="50" relative="1" as="geometry">
            <mxPoint x="151" y="511" as="sourcePoint" />
            <mxPoint x="621" y="321" as="targetPoint" />
          </mxGeometry>
        </mxCell>
        <mxCell id="e2L_Nnnlv2MEoUU_Fil1-45" value="" style="strokeWidth=1;html=1;shape=mxgraph.flowchart.annotation_2;align=left;labelPosition=right;pointerEvents=1;direction=south;" parent="1" vertex="1">
          <mxGeometry x="266" y="350" width="250" height="59" as="geometry" />
        </mxCell>
        <mxCell id="e2L_Nnnlv2MEoUU_Fil1-47" value="" style="endArrow=classic;html=1;rounded=0;exitX=0.5;exitY=1;exitDx=0;exitDy=0;exitPerimeter=0;" parent="1" edge="1">
          <mxGeometry width="50" height="50" relative="1" as="geometry">
            <mxPoint x="266" y="400" as="sourcePoint" />
            <mxPoint x="266" y="440" as="targetPoint" />
          </mxGeometry>
        </mxCell>
        <mxCell id="e2L_Nnnlv2MEoUU_Fil1-48" value="" style="endArrow=classic;html=1;rounded=0;entryX=0;entryY=0.5;entryDx=0;entryDy=0;" parent="1" edge="1">
          <mxGeometry width="50" height="50" relative="1" as="geometry">
            <mxPoint x="333" y="380" as="sourcePoint" />
            <mxPoint x="333" y="441" as="targetPoint" />
          </mxGeometry>
        </mxCell>
        <mxCell id="e2L_Nnnlv2MEoUU_Fil1-50" value="" style="endArrow=classic;html=1;rounded=0;exitX=0.5;exitY=0;exitDx=0;exitDy=0;exitPerimeter=0;" parent="1" edge="1">
          <mxGeometry width="50" height="50" relative="1" as="geometry">
            <mxPoint x="516" y="380.5" as="sourcePoint" />
            <mxPoint x="516" y="441" as="targetPoint" />
          </mxGeometry>
        </mxCell>
        <mxCell id="e2L_Nnnlv2MEoUU_Fil1-54" value="" style="endArrow=classic;html=1;rounded=0;exitX=0.534;exitY=0.501;exitDx=0;exitDy=0;exitPerimeter=0;entryX=0.5;entryY=0;entryDx=0;entryDy=0;" parent="1" source="e2L_Nnnlv2MEoUU_Fil1-2" target="e2L_Nnnlv2MEoUU_Fil1-9" edge="1">
          <mxGeometry width="50" height="50" relative="1" as="geometry">
            <mxPoint x="430" y="420" as="sourcePoint" />
            <mxPoint x="387" y="300" as="targetPoint" />
          </mxGeometry>
        </mxCell>
        <mxCell id="kPGFxgxvTqpgcO3hLADZ-2" value="查看编辑个人信息" style="rounded=1;whiteSpace=wrap;html=1;direction=south;" vertex="1" parent="1">
          <mxGeometry x="240" y="440" width="50" height="120" as="geometry" />
        </mxCell>
        <mxCell id="kPGFxgxvTqpgcO3hLADZ-3" value="下载实验资源" style="rounded=1;whiteSpace=wrap;html=1;direction=south;" vertex="1" parent="1">
          <mxGeometry x="310" y="440" width="50" height="120" as="geometry" />
        </mxCell>
        <mxCell id="kPGFxgxvTqpgcO3hLADZ-4" value="" style="endArrow=classic;html=1;rounded=0;exitX=0.542;exitY=0.504;exitDx=0;exitDy=0;exitPerimeter=0;" edge="1" parent="1">
          <mxGeometry width="50" height="50" relative="1" as="geometry">
            <mxPoint x="391" y="379.97800000000007" as="sourcePoint" />
            <mxPoint x="392" y="440" as="targetPoint" />
            <Array as="points">
              <mxPoint x="391" y="398" />
            </Array>
          </mxGeometry>
        </mxCell>
        <mxCell id="kPGFxgxvTqpgcO3hLADZ-6" value="在线实验" style="rounded=1;whiteSpace=wrap;html=1;direction=south;" vertex="1" parent="1">
          <mxGeometry x="370.25" y="440" width="49.75" height="120" as="geometry" />
        </mxCell>
        <mxCell id="kPGFxgxvTqpgcO3hLADZ-7" value="" style="endArrow=classic;html=1;rounded=0;exitX=0.542;exitY=0.504;exitDx=0;exitDy=0;exitPerimeter=0;" edge="1" parent="1">
          <mxGeometry width="50" height="50" relative="1" as="geometry">
            <mxPoint x="456" y="380.97800000000007" as="sourcePoint" />
            <mxPoint x="457" y="441" as="targetPoint" />
            <Array as="points">
              <mxPoint x="456" y="399" />
            </Array>
          </mxGeometry>
        </mxCell>
        <mxCell id="kPGFxgxvTqpgcO3hLADZ-8" value="实验提交" style="rounded=1;whiteSpace=wrap;html=1;direction=south;" vertex="1" parent="1">
          <mxGeometry x="430.25" y="440" width="49.75" height="120" as="geometry" />
        </mxCell>
        <mxCell id="kPGFxgxvTqpgcO3hLADZ-9" value="实验结果" style="rounded=1;whiteSpace=wrap;html=1;direction=south;" vertex="1" parent="1">
          <mxGeometry x="490" y="440" width="49.75" height="120" as="geometry" />
        </mxCell>
        <mxCell id="kPGFxgxvTqpgcO3hLADZ-10" value="" style="strokeWidth=1;html=1;shape=mxgraph.flowchart.annotation_2;align=left;labelPosition=right;pointerEvents=1;direction=south;" vertex="1" parent="1">
          <mxGeometry x="626.13" y="340" width="250" height="59" as="geometry" />
        </mxCell>
        <mxCell id="kPGFxgxvTqpgcO3hLADZ-11" value="" style="endArrow=classic;html=1;rounded=0;exitX=0.5;exitY=1;exitDx=0;exitDy=0;exitPerimeter=0;" edge="1" parent="1">
          <mxGeometry width="50" height="50" relative="1" as="geometry">
            <mxPoint x="626.13" y="390" as="sourcePoint" />
            <mxPoint x="626.13" y="430" as="targetPoint" />
          </mxGeometry>
        </mxCell>
        <mxCell id="kPGFxgxvTqpgcO3hLADZ-12" value="" style="endArrow=classic;html=1;rounded=0;entryX=0;entryY=0.5;entryDx=0;entryDy=0;" edge="1" parent="1">
          <mxGeometry width="50" height="50" relative="1" as="geometry">
            <mxPoint x="693.13" y="370" as="sourcePoint" />
            <mxPoint x="693.13" y="431" as="targetPoint" />
          </mxGeometry>
        </mxCell>
        <mxCell id="kPGFxgxvTqpgcO3hLADZ-13" value="" style="endArrow=classic;html=1;rounded=0;exitX=0.5;exitY=0;exitDx=0;exitDy=0;exitPerimeter=0;" edge="1" parent="1">
          <mxGeometry width="50" height="50" relative="1" as="geometry">
            <mxPoint x="876.13" y="370.5" as="sourcePoint" />
            <mxPoint x="876.13" y="431" as="targetPoint" />
          </mxGeometry>
        </mxCell>
        <mxCell id="kPGFxgxvTqpgcO3hLADZ-14" value="查看编辑个人信息" style="rounded=1;whiteSpace=wrap;html=1;direction=south;" vertex="1" parent="1">
          <mxGeometry x="600.13" y="430" width="50" height="120" as="geometry" />
        </mxCell>
        <mxCell id="kPGFxgxvTqpgcO3hLADZ-15" value="发布实验" style="rounded=1;whiteSpace=wrap;html=1;direction=south;" vertex="1" parent="1">
          <mxGeometry x="670.13" y="430" width="50" height="120" as="geometry" />
        </mxCell>
        <mxCell id="kPGFxgxvTqpgcO3hLADZ-16" value="" style="endArrow=classic;html=1;rounded=0;exitX=0.542;exitY=0.504;exitDx=0;exitDy=0;exitPerimeter=0;" edge="1" parent="1">
          <mxGeometry width="50" height="50" relative="1" as="geometry">
            <mxPoint x="751.13" y="369.97800000000007" as="sourcePoint" />
            <mxPoint x="752.13" y="430" as="targetPoint" />
            <Array as="points">
              <mxPoint x="751.13" y="388" />
            </Array>
          </mxGeometry>
        </mxCell>
        <mxCell id="kPGFxgxvTqpgcO3hLADZ-17" value="上传实验资源" style="rounded=1;whiteSpace=wrap;html=1;direction=south;" vertex="1" parent="1">
          <mxGeometry x="730.38" y="430" width="49.75" height="120" as="geometry" />
        </mxCell>
        <mxCell id="kPGFxgxvTqpgcO3hLADZ-18" value="" style="endArrow=classic;html=1;rounded=0;exitX=0.542;exitY=0.504;exitDx=0;exitDy=0;exitPerimeter=0;" edge="1" parent="1">
          <mxGeometry width="50" height="50" relative="1" as="geometry">
            <mxPoint x="816.13" y="370.97800000000007" as="sourcePoint" />
            <mxPoint x="817.13" y="431" as="targetPoint" />
            <Array as="points">
              <mxPoint x="816.13" y="389" />
            </Array>
          </mxGeometry>
        </mxCell>
        <mxCell id="kPGFxgxvTqpgcO3hLADZ-19" value="实验批改" style="rounded=1;whiteSpace=wrap;html=1;direction=south;" vertex="1" parent="1">
          <mxGeometry x="790.38" y="430" width="49.75" height="120" as="geometry" />
        </mxCell>
        <mxCell id="kPGFxgxvTqpgcO3hLADZ-20" value="实验成绩导出" style="rounded=1;whiteSpace=wrap;html=1;direction=south;" vertex="1" parent="1">
          <mxGeometry x="850.13" y="430" width="49.75" height="120" as="geometry" />
        </mxCell>
      </root>
    </mxGraphModel>
  </diagram>
</mxfile>
